<?xml version="1.0" encoding="UTF-8" standalone="no"?>
<!-- Created with Inkscape (http://www.inkscape.org/) -->

<svg
   xmlns:dc="http://purl.org/dc/elements/1.1/"
   xmlns:cc="http://creativecommons.org/ns#"
   xmlns:rdf="http://www.w3.org/1999/02/22-rdf-syntax-ns#"
   xmlns:svg="http://www.w3.org/2000/svg"
   xmlns="http://www.w3.org/2000/svg"
   xmlns:sodipodi="http://sodipodi.sourceforge.net/DTD/sodipodi-0.dtd"
   xmlns:inkscape="http://www.inkscape.org/namespaces/inkscape"
   width="744.09448819"
   height="1052.3622047"
   id="svg3216"
   version="1.1"
   inkscape:version="0.48.1 r9760"
   sodipodi:docname="New document 13">
  <defs
     id="defs3218" />
  <sodipodi:namedview
     id="base"
     pagecolor="#ffffff"
     bordercolor="#666666"
     borderopacity="1.0"
     inkscape:pageopacity="0.0"
     inkscape:pageshadow="2"
     inkscape:zoom="0.98994949"
     inkscape:cx="424.14605"
     inkscape:cy="737.41385"
     inkscape:document-units="px"
     inkscape:current-layer="layer1"
     showgrid="false"
     inkscape:window-width="1280"
     inkscape:window-height="726"
     inkscape:window-x="0"
     inkscape:window-y="25"
     inkscape:window-maximized="1" />
  <metadata
     id="metadata3221">
    <rdf:RDF>
      <cc:Work
         rdf:about="">
        <dc:format>image/svg+xml</dc:format>
        <dc:type
           rdf:resource="http://purl.org/dc/dcmitype/StillImage" />
        <dc:title></dc:title>
      </cc:Work>
    </rdf:RDF>
  </metadata>
  <g
     inkscape:label="Layer 1"
     inkscape:groupmode="layer"
     id="layer1">
    <path
       style="fill:#000000"
       d="m 663.66145,160.36237 -7.9934,7.58188 6.77238,-13.03947 c 3.72481,-7.17171 13.4886,-25.34046 21.69734,-40.375 8.20869,-15.034543 17.84255,-32.435398 21.40847,-38.668576 3.56601,-6.233178 6.48365,-11.934347 6.48365,-12.669267 l 0,-1.336213 -6.4125,3.549599 -6.4125,3.549609 6.65,-5.989066 c 3.6575,-3.293992 10.43167,-9.877644 15.05362,-14.630342 l 8.40362,-8.641276 -1.40572,3.325 c -0.77311,1.82875 -3.37915,7.650454 -5.7911,12.937128 l -4.3854,9.612129 0,2.025371 0,2.025372 0.80835,0 c 0.44451,0 3.60564,-2.117674 7.02469,-4.70593 l 6.21642,-4.705939 0.69863,16.771414 0.69873,16.771424 -6.06091,5.526045 c -3.33355,3.039328 -7.28575,6.437728 -8.78266,7.551988 l -2.72177,2.02594 0.53533,-1.80497 c 0.2944,-0.99273 1.4538,-7.071554 2.57651,-13.508478 l 2.04136,-11.703516 -0.57114,-0.571064 -0.57105,-0.571073 -2.33274,2.191441 -2.33263,2.191441 -1.14104,-2.504362 c -0.62757,-1.377395 -1.44543,-2.504361 -1.81735,-2.504361 -0.37193,0 -4.84548,8.870625 -9.94118,19.7125 -5.09571,10.841882 -10.34075,22.181342 -11.65577,25.198832 l -2.39087,5.48632 0.53628,0.5363 0.53627,0.53628 5.77328,-3.92051 c 3.17528,-2.15629 5.77324,-3.69531 5.77324,-3.42005 0,0.27525 -6.51937,6.81871 -14.48753,14.54101 -7.96814,7.7223 -18.08455,17.4524 -22.48091,21.62244 z m -111.52547,1.06741 -0.48863,0.48863 -2.30805,-4.11207 c -1.26942,-2.26165 -5.7459,-10.09709 -9.94773,-17.41209 -4.20183,-7.315 -8.06089,-14.155 -8.57566,-15.2 -0.51479,-1.045 -1.22085,-3.47903 -1.56902,-5.40896 l -0.63305,-3.50896 -1.79019,-0.56818 -1.79019,-0.56819 -0.66909,-3.99785 -0.66907,-3.99786 -4.71453,-5.9375 -4.71453,-5.937502 -6.09319,0 -6.09321,0 0,6.615692 0,6.61568 4.0375,3.81057 4.0375,3.81055 -8.95019,0.0237 -8.9502,0.0238 -1.7373,1.57224 -1.73731,1.57223 -0.1102,-7.50973 -0.1102,-7.50974 -0.43669,1.67413 -0.4367,1.67414 -0.80154,-0.49539 -0.80155,-0.49538 -1.06259,3.2197 -1.06259,3.21971 -4.47647,4.83961 -4.47647,4.83961 -5.02267,1.92444 -5.02267,1.92443 -2.3959,0 -2.39589,0 0.75106,-1.1875 c 0.41309,-0.65312 0.8158,-2.36312 0.8949,-3.8 l 0.14384,-2.6125 -0.73509,0 c -0.4043,0 -2.43548,0.76128 -4.51373,1.69175 -2.07826,0.93046 -5.28964,3.01842 -7.13639,4.63989 -1.84676,1.62148 -3.82681,3.82458 -4.4001,4.89579 l -1.04236,1.94767 0,4.75638 0,4.75639 -0.97584,0.6031 -0.97584,0.60311 -3.21143,-6.93329 -3.21144,-6.93328 -2.66271,5.62373 -2.66272,5.62374 -5.5758,5.75001 -5.57581,5.75001 0.52753,-1.9 c 0.29014,-1.045 2.11174,-6.38875 4.04801,-11.875 l 3.52049,-9.975 0.40982,-9.7183 0.40982,-9.71831 -1.5824,-6.45711 c -0.87031,-3.551418 -1.96414,-7.074797 -2.43073,-7.829743 l -0.84833,-1.372626 -9.31381,4.723048 -9.31381,4.723041 -13.5375,0.32657 -13.5375,0.32658 -0.0101,0.62342 c -0.006,0.34289 -0.85378,6.08954 -1.88499,12.77034 l -1.87492,12.14691 -0.99843,1.86559 -0.99844,1.86559 -3.60934,0 -3.60934,0 0.76084,-5.9375 c 0.41845,-3.26562 0.994,-7.54062 1.27899,-9.5 l 0.51816,-3.5625 -10.60398,0 -10.60397,0 -4.06424,4.30266 -4.06425,4.30265 -1.59771,4.48485 c -0.87875,2.46666 -1.77803,5.08982 -1.99841,5.82924 l -0.40068,1.34441 -3.10234,-3.00691 -3.10233,-3.0069 -1.23313,0 c -0.67821,0 -2.45582,0.87065 -3.95025,1.93477 -1.49442,1.06412 -3.98824,2.37789 -5.54181,2.91947 l -2.82469,0.98468 -2.05073,-1.09752 -2.05073,-1.09751 0.5765,-2.29695 0.57649,-2.29694 -1.51617,0 -1.51618,0 -2.62163,2.62163 c -1.4419,1.4419 -2.89227,3.25878 -3.22304,4.03751 l -0.6014,1.41586 -1.21639,-1.73618 c -0.66902,-0.9549 -2.50224,-3.7295 -4.07384,-6.16578 l -2.85744,-4.42958 -2.60506,-1.24857 -2.60505,-1.24856 0,-1.77268 0,-1.77268 3.0875,-0.66984 3.0875,-0.66983 0.69796,-1.06815 0.69794,-1.06815 5.6e-4,-22.800002 5.4e-4,-22.8 -1.20155,-2.375 -1.20156,-2.375 -1.35005,0 -1.35005,0 -4.07984,9.120988 c -2.24391,5.016551 -4.33683,10.405949 -4.65094,11.976451 l -0.57108,2.855453 3.89153,0.622278 c 2.14035,0.342257 3.89154,0.769823 3.89154,0.950143 0,0.180319 -4.71243,9.974335 -10.47208,21.764489 l -10.47209,21.43664 -6.86541,0.49991 c -3.77598,0.27495 -8.913,0.78026 -11.4156,1.12294 l -4.55019,0.62303 -3.16063,-0.59295 -3.16064,-0.59293 -0.69578,-28.71822 c -0.38268,-15.79502 -0.92571,-28.931972 -1.20674,-29.193222 l -0.51096,-0.475 -0.37111,1.028518 c -0.20411,0.565687 -3.55497,7.529947 -7.44636,15.476127 l -7.07524,14.447607 -3.31807,1.38637 -3.31807,1.38638 -5.09718,0 -5.09718,0 -0.60008,-0.60008 -0.60008,-0.60007 2.29868,-3.92241 c 1.26428,-2.15732 3.38681,-6.813289 4.71675,-10.346605 1.32993,-3.533316 2.41806,-6.870353 2.41806,-7.415624 l 0,-0.99142 -2.54781,0.300608 -2.54782,0.300599 -5.28968,10.068081 c -2.90933,5.537446 -5.87641,10.774321 -6.59351,11.637501 l -1.30382,1.56942 -4.91868,0 -4.91868,0 -1.14,1.14 c -0.627,0.627 -1.14,1.482 -1.14,1.9 l 0,0.76 14.67936,0 14.67937,0 2.76889,4.0375 c 1.52289,2.22063 4.48105,6.84101 6.5737,10.26751 2.09264,3.4265 4.10223,7.16713 4.46576,8.3125 l 0.66096,2.08249 -8.99875,0 -8.99875,0 -2.60063,-4.5125 c -1.43035,-2.48187 -4.48508,-7.18437 -6.78828,-10.45 -2.3032,-3.26562 -4.53559,-5.9375 -4.96089,-5.9375 l -0.77325,0 -3.42953,7.125 -3.42952,7.125 -8.16816,0 -8.16818,0 1.96895,-2.50312 1.96895,-2.50311 0,-2.68492 0,-2.68491 -4.10964,-5.04554 -4.10964,-5.04553 0.3888,-1.16644 0.38882,-1.16643 -1.50417,0 -1.50417,0 0.0417,-1.1875 c 0.0229,-0.65312 0.61038,-2.78065 1.30543,-4.72784 l 1.26374,-3.540335 -1.21865,-5.242489 -1.21866,-5.24249 2.93611,-0.760817 2.93609,-0.760817 0.38129,-1.143857 0.38128,-1.143857 -3.325,0 -3.325,0 -0.3421,-1.026266 -0.34208,-1.026256 -2.67895,1.220607 -2.67896,1.220617 0.32369,11.918149 0.32367,11.918151 -4.90804,7.33181 c -2.69942,4.03249 -5.20172,8.2571 -5.56066,9.38802 l -0.65262,2.05622 -0.8316,-1.31303 -0.83159,-1.31302 -0.0202,-7.6 c -0.0111,-4.18 -0.2948,-11.12687 -0.63036,-15.4375 l -0.61011,-7.837502 -5.47474,0 -5.47475,0 -2.38297,2.831998 c -1.31063,1.557591 -4.09298,5.939474 -6.183,9.737504 -2.09002,3.79802 -5.47796,11.1805 -7.52876,16.4055 -2.0508,5.225 -4.06779,10.355 -4.48222,11.4 l -0.75349,1.9 -0.72454,-2.375 -0.72453,-2.375 -0.0947,-9.10416 c -0.0521,-5.0073 -0.30978,-9.31926 -0.57267,-9.58215 l -0.47797,-0.47797 -14.484527,3.15437 c -7.966491,1.73491 -20.179453,4.48332 -27.139913,6.10761 l -12.655387,2.95322 0.464293,1.20992 0.464294,1.20992 -5.760762,0.60212 c -3.168402,0.33117 -8.935662,0.60212 -12.816108,0.60212 l -7.055365,0 3.139759,-5.4625 3.13975,-5.4625 0.361798,-20.229387 0.361798,-20.229386 -7.469327,0.279386 -7.469337,0.279385 -3.152376,6.175 -3.152366,6.175 0.50997,-10.45 c 0.280487,-5.7475 0.780843,-11.790526 1.111908,-13.428943 l 0.601939,-2.978953 3.465467,-0.573097 c 1.906004,-0.315201 12.015458,-0.573097 22.465458,-0.573097 10.45,0 20.548918,0.256186 22.44204,0.569297 l 3.44204,0.569297 0.575472,5.832753 c 0.316502,3.208007 0.839505,9.466493 1.16222,13.907743 l 0.586758,8.075 -3.379663,-6.8875 -3.379672,-6.8875 -7.241109,0 -7.241109,0 0.316511,21.297328 0.316512,21.297334 0.701404,0.6999 0.701394,0.69991 6.423606,-2.66631 c 3.532974,-1.46648 9.679322,-4.32926 13.658549,-6.36175 3.979227,-2.03247 7.992027,-4.249 8.917327,-4.9256 l 1.682383,-1.23019 -3.470502,-5.142816 -3.470492,-5.142806 5.478165,-0.609396 c 3.012992,-0.33516 7.518614,-0.655785 10.012487,-0.7125 l 4.534331,-0.103104 7.664342,4.453287 7.66435,4.453285 1.48982,-0.93975 c 0.8194,-0.516874 2.28121,-2.413977 3.24845,-4.215794 l 1.75863,-3.276028 -4.99712,-1.061549 c -2.74842,-0.583851 -6.20057,-1.545726 -7.67147,-2.1375 -1.47088,-0.591774 -3.90379,-1.075951 -5.40643,-1.075951 l -2.732096,0 -0.587128,0.95 -0.587129,0.95 -9.659847,0 -9.659837,0 2.353406,-2.265835 c 1.294375,-1.24621 8.171948,-6.910585 15.283496,-12.5875 7.111535,-5.676915 14.973205,-11.780542 17.470355,-13.563606 l 4.54029,-3.241951 -3.6127,6.566951 c -1.98699,3.611814 -5.03927,9.047971 -6.78287,12.080342 -1.74359,3.032362 -3.17016,5.704237 -3.17016,5.9375 0,0.233254 4.94413,0.424099 10.98695,0.424099 l 10.98696,0 4.53905,-9.7375 c 2.49648,-5.355625 5.98194,-13.287004 7.74548,-17.625274 l 3.20642,-7.887783 0.67579,1.712783 0.6758,1.712774 0.0668,11.143272 0.0668,11.143282 -1.52738,3.81729 -1.52738,3.817299 0.54757,1.426929 c 0.30113,0.784814 0.95791,1.426928 1.45949,1.426928 0.50157,0 1.58375,-0.671783 2.40481,-1.492858 l 1.49286,-1.492859 0,-15.529441 0,-15.52945 0.60985,-1.589217 0.60984,-1.589227 3.26808,7.924026 c 1.79745,4.358211 3.55949,8.229128 3.91566,8.602022 l 0.64757,0.677996 4.18282,-3.30998 4.18282,-3.309981 5.30418,-1.481515 c 2.9173,-0.814834 7.01418,-2.061234 9.10418,-2.769773 2.09,-0.708538 5.46042,-1.559463 7.48983,-1.890927 l 3.68982,-0.60268 -0.58603,1.527163 c -0.32231,0.839942 -1.26494,3.862557 -2.09473,6.716927 l -1.50871,5.189774 -0.88259,0 -0.88259,0 0,1.347043 0,1.347043 -6.8875,0.315457 -6.8875,0.315457 -0.55095,-0.744676 -0.55095,-0.744677 -1.59732,0.61295 -1.59732,0.612949 0.58741,-1.530773 0.58741,-1.530773 -1.88289,0 c -1.03559,0 -3.21882,0.267188 -4.85164,0.59375 l -2.96875,0.59375 0,1.355536 c 0,0.745551 0.96188,3.032163 2.1375,5.08137 l 2.1375,3.725833 -1.25332,2.017392 -1.25333,2.017391 0.52871,0.528704 0.52872,0.528713 6.42461,-2.917868 c 3.53353,-1.604826 8.47018,-3.594373 10.97032,-4.421215 2.50013,-0.826842 5.64804,-1.503356 6.99536,-1.503356 l 2.44967,0 -0.5633,4.0375 c -0.30982,2.220625 -0.85075,7.415957 -1.20206,11.545179 l -0.63876,7.507679 0.85669,-0.537994 c 0.47118,-0.295897 4.05156,-6.987478 7.95639,-14.870179 l 7.0997,-14.332185 13.5628,0 13.5628,0 0,-0.679867 c 0,-0.37393 -2.01455,-2.72518 -4.47679,-5.225 l -4.47679,-4.545133 28.93929,0.01434 28.93929,0.01434 -7.71117,7.585674 -7.71116,7.585665 -2.50134,0 -2.50133,0 0,28.025 0,28.025003 0.75875,0 0.75874,0 7.81198,-15.9125 c 4.29659,-8.75188 7.80265,-16.398343 7.79125,-16.99214 l -0.0207,-1.079628 -4.275,-0.641079 -4.275,-0.641079 0.0182,-1.129284 c 0.0101,-0.62111 4.46225,-9.679293 9.89372,-20.129293 l 9.87543,-19 5.68783,-0.280402 5.68784,-0.280412 0.87894,2.636811 0.87894,2.63681 3.08332,-4.256408 3.08332,-4.256399 0.64371,0.346474 c 0.35405,0.190561 3.52725,3.066657 7.05157,6.391315 l 6.40785,6.04485 -3.08285,4.373677 -3.08286,4.373676 0,19.838575 0,19.838576 1.64069,1.64069 1.64069,1.64069 4.771,-0.072 4.77102,-0.072 2.32013,-1.52021 2.32014,-1.52022 c 7.78997,-8.956347 14.61186,-16.135782 20.87238,-22.258304 6.45481,-6.322715 17.26458,-17.368821 24.0217,-24.546917 l 12.28565,-13.051071 0.59113,1.540453 0.59113,1.540444 -1.55946,8.660628 c -0.85769,4.763338 -1.82791,10.263743 -2.15605,12.223118 l -0.5966,3.5625 0.89824,0 0.89824,0 4.19498,-6.232912 4.19499,-6.232912 2.375,0.443156 c 1.30625,0.243732 5.32976,1.570321 8.94112,2.947983 l 6.56611,2.504836 1.50889,-0.302261 1.50888,-0.302252 -7.3625,-7.752665 -7.3625,-7.752665 0,-1.381424 0,-1.381423 3.17458,-4.616231 3.17458,-4.61623 1.99876,-0.296799 1.99876,-0.296809 7.55885,7.221672 7.55883,7.221672 4.7213,6.850137 c 2.59672,3.767567 6.02198,9.43748 7.61168,12.599793 1.58971,3.162312 3.58682,8.292312 4.43802,11.4 0.85121,3.107687 1.95647,6.392654 2.45615,7.299942 l 0.90849,1.649609 0,3.010132 0,3.01013 1.9,-1.719479 1.9,-1.719481 0,-2.22776 0,-2.227759 -0.88034,0 -0.88034,0 -0.47681,1.6625 -0.47679,1.6625 0.21345,-7.125 0.21347,-7.125 0.77033,-1.6625 0.77031,-1.6625 -1.83604,0 -1.83604,0 -2.0656,-2.198728 c -1.13608,-1.209302 -2.0656,-2.705552 -2.0656,-3.325 l 0,-1.126272 -1.1875,-0.01453 -1.1875,-0.01453 1.26716,-0.803244 1.26715,-0.803254 -1.43091,-0.54909 -1.43091,-0.549091 0.47605,-1.820456 0.47606,-1.820447 3.31688,1.140285 3.31687,1.140285 4.44582,-0.992636 4.44583,-0.992636 5.43882,-5.510314 c 2.99135,-3.030671 5.84382,-5.510313 6.33883,-5.510313 l 0.90001,0 1.09734,3.325 1.09735,3.325 1.35132,0 1.35133,0 0,-1.425 c 0,-0.78375 0.17079,-1.425 0.37954,-1.425 0.20874,0 2.66687,1.543854 5.4625,3.430782 2.79563,1.886928 6.04484,3.800095 7.22046,4.251478 l 2.1375,0.820715 0,1.923512 0,1.923513 -0.77506,0 c -0.42629,0 -1.70879,1.661331 -2.85,3.691842 l -2.07494,3.691852 0,2.427089 0,2.427088 -0.8025,0.495967 -0.8025,0.495976 -3.40347,-4.883162 -3.40347,-4.883152 -5.99776,0.244787 -5.99777,0.244777 -0.69734,1.110968 -0.69735,1.110968 0.13182,3.5625 0.13182,3.5625 0.67794,0 c 0.37286,0 1.1931,-0.62074 1.82274,-1.37941 l 1.14482,-1.379409 -0.6178,-1.946531 -0.61781,-1.946531 2.50116,0.95094 2.50116,0.950941 3.73816,0 3.73815,0 0,0.964611 c 0,0.530546 -1.58308,3.416171 -3.51796,6.4125 -1.93489,2.996338 -4.15514,6.214244 -4.9339,7.150897 -0.77877,0.936662 -1.95517,3.271543 -2.61424,5.188634 -0.65906,1.917098 -0.99352,3.690408 -0.74323,3.940698 0.25028,0.25029 3.05512,-0.48045 6.23297,-1.62385 l 5.77789,-2.07892 -0.54595,1.42271 -0.54595,1.42272 1.63268,-0.0209 c 0.89798,-0.0115 3.34269,-0.79872 5.43269,-1.74944 2.09,-0.95073 4.38672,-2.43759 5.10382,-3.304142 0.71711,-0.866562 1.82411,-1.575556 2.46002,-1.575556 l 1.15618,0 1.14797,-2.519524 1.14797,-2.519514 -0.99548,-0.995486 -0.99548,-0.995476 0,-11.58336 0,-11.583359 1.5027,-0.576641 1.50269,-0.57664 18.55352,0 18.55351,0 12.85,-12.1125 12.84999,-12.1125 -3.11325,6.175 c -1.7123,3.39625 -6.10939,11.51875 -9.77131,18.05 l -6.65805,11.875 -0.45971,4.048672 -0.45971,4.048672 -3.29054,2.88914 -3.29056,2.88914 0.56471,2.24998 c 0.3106,1.237489 1.97288,4.100475 3.69397,6.362188 l 3.12926,4.112206 3.46135,0.86538 3.46133,0.86538 1.07119,6.73462 c 0.58916,3.70405 3.01125,16.27393 5.38244,27.93307 l 4.31125,21.19845 -0.48864,0.48863 z m -191.87345,-58.57507 8.75768,0.0145 -0.47496,-1.23773 -0.47495,-1.23771 1.48835,-3.562144 1.48836,-3.562139 0.50001,-7.787635 0.50001,-7.787644 -11.48446,11.802943 -11.48446,11.802959 1.21336,0.77 1.21337,0.77 8.75769,0.0145 z m 150.05988,-16.329823 8.24256,-0.43263 2.7206,-3.249 2.72061,-3.249009 -0.27567,-3.8 -0.27567,-3.8 -10.6875,-0.268613 -10.6875,-0.268612 0,7.750242 0,7.750243 z m 64.54425,55.294363 -3.20772,0 -3.91455,-3.79894 -3.91455,-3.79895 0,-3.18352 0,-3.18351 2.84126,-3.92225 2.84126,-3.92225 2.4698,-0.61987 2.46981,-0.61988 3.64778,1.09289 3.64777,1.0929 1.96616,3.18133 1.96616,3.18132 0,3.81482 0,3.81483 -3.80273,3.43554 -3.80274,3.43554 z m 1.36515,-1.9 1.049,0 -0.59524,-3.0875 -0.59526,-3.0875 1.44007,1.80346 1.44008,1.80347 1.69219,-1.32847 c 0.9307,-0.73065 2.00627,-1.75596 2.39015,-2.27846 0.38387,-0.5225 0.7045,-1.31637 0.7125,-1.76414 l 0.0145,-0.81414 -1.54716,0.5937 -1.54716,0.5937 0.5619,-2.8095 0.5619,-2.8095 -2.97908,-0.29506 -2.97908,-0.29506 -0.46515,-1.425 -0.46514,-1.425 1.60244,1.32288 1.60245,1.32287 0.52901,-0.52901 0.52901,-0.52901 -1.06039,-1.98136 -1.0604,-1.98137 -1.44385,0 -1.44385,0 -2.30121,5.20345 -2.30121,5.20343 -1.44651,-0.55508 -1.44652,-0.55508 0.0302,1.28914 c 0.0166,0.70902 0.65346,2.11293 1.41519,3.11979 0.76174,1.00686 1.51877,1.64811 1.68232,1.425 0.16353,-0.22311 1.03281,-1.58127 1.93171,-3.01815 l 1.63438,-2.6125 1.425,0 1.425,0 -1.47215,2.24677 -1.47214,2.24677 0.95173,2.50323 0.95173,2.50323 1.04899,0 z m -7.23634,-10.74643 c 0.55516,-0.18481 1.1476,-1.04871 1.31653,-1.9198 l 0.30716,-1.58377 -1.96966,0 -1.96966,0 0,1.26666 c 0,0.69668 0.29391,1.56058 0.65313,1.9198 0.35921,0.35922 1.10734,0.50192 1.6625,0.31711 z m 63.73548,1.14234 c -2.10437,-0.0573 -5.73049,-0.47739 -8.05807,-0.93365 l -4.23197,-0.82958 -5.2559,-2.57148 -5.25591,-2.57148 -4.32155,-4.33236 -4.32155,-4.33236 -4.37682,-9.025 c -2.40726,-4.96375 -5.06364,-11.346973 -5.90308,-14.184927 -0.83945,-2.837964 -1.52626,-5.900317 -1.52626,-6.80524 l 0,-1.645305 5.79242,-7.81223 c 3.18582,-4.296726 8.22169,-10.310283 11.19081,-13.36345 l 5.39839,-5.551221 3.29669,0.866011 c 1.81318,0.476311 6.60982,1.38149 10.65919,2.01152 l 7.3625,1.14552 0,1.267566 c 0,0.697167 -1.06233,3.669679 -2.36072,6.605578 l -2.36071,5.338002 -3.81429,-0.644413 -3.81428,-0.644423 0,1.433493 c 0,0.788424 0.88583,5.207881 1.96851,9.821005 l 1.96851,8.387512 2.80484,3.535843 2.80484,3.535843 -4.01743,2.536096 c -2.20959,1.39485 -4.77087,3.43747 -5.69175,4.53916 -0.92087,1.10168 -1.68853,2.49562 -1.70591,3.09762 l -0.0316,1.09457 2.99176,1.04293 2.99177,1.04294 6.74573,-0.0145 6.74574,-0.0145 1.24259,-0.78806 1.2426,-0.78807 -0.50648,-2.28489 c -0.27857,-1.25669 -0.96288,-7.99816 -1.52071,-14.981054 l -1.01422,-12.696171 9.30311,-8.739439 c 5.11671,-4.806696 11.10388,-10.350488 13.30481,-12.319534 l 4.00169,-3.580084 1.03194,0.637773 1.03194,0.637773 -1.06158,1.279118 -1.06157,1.279108 8.61545,8.607247 8.61543,8.607238 0,3.591494 c 0,1.975316 0.45298,7.20385 1.00655,11.618956 0.55366,4.415115 1.21429,8.235225 1.46822,8.489115 0.25394,0.25391 1.27737,-0.0478 2.2744,-0.67043 l 1.81279,-1.132091 0.59403,0.961241 0.59404,0.96123 -9.33749,8.7533 c -5.13565,4.81431 -11.93416,11.20852 -15.10782,14.20933 l -5.77028,5.45602 -7.31335,-6.7388 -7.31335,-6.73879 -1.32078,1.09615 c -0.72642,0.60288 -2.52205,3.85358 -3.99026,7.22378 l -2.66949,6.12763 -3.8261,-0.10409 z m 35.1313,-14.31165 c 0.23338,-0.23338 -0.068,-7.82432 -0.66974,-16.86875 l -1.09407,-16.444424 -5.7718,-5.577203 -5.7718,-5.577203 -1.1875,-0.0085 -1.1875,-0.0085 0.0469,1.6625 c 0.0258,0.914375 0.60796,8.250636 1.29367,16.302807 l 1.24677,14.640313 6.33536,6.15149 c 3.48444,3.38332 6.52631,5.96053 6.75969,5.72716 z m -57.53232,-14.08426 c 0.54995,0 0.99429,-0.32062 0.98742,-0.7125 -0.007,-0.39187 -1.48549,-6.216745 -3.28582,-12.944161 -1.80034,-6.727406 -3.49465,-12.45297 -3.76515,-12.723473 l -0.49181,-0.491815 -0.62351,1.624851 -0.62352,1.624852 0.51093,5.634687 0.51094,5.634678 2.89031,6.176435 2.8903,6.176446 z m 33.73425,-47.713562 -1.94067,1.01972 -2.76795,-4.375206 -2.76797,-4.375206 1.05829,-0.352763 c 0.58205,-0.194019 2.01823,-1.185306 3.19149,-2.20287 1.17325,-1.017564 2.60216,-1.832436 3.17533,-1.810823 l 1.04214,0.03933 2.51517,3.938035 2.51517,3.938044 -2.04017,1.581028 c -1.12209,0.869564 -2.91346,2.039897 -3.98083,2.600739 z m 22.87521,-1.68644 c -0.20621,0 -1.67068,-1.919922 -3.25436,-4.266498 l -2.87942,-4.266488 3.42906,-2.330103 3.42905,-2.330103 2.72512,3.761934 2.72514,3.761924 -2.89982,2.834667 c -1.59491,1.559064 -3.06855,2.834667 -3.27477,2.834667 z"
       id="path3530"
       inkscape:connector-curvature="0"
       sodipodi:nodetypes="scsssscccssccscccsscccscccscccccsssccccssssccsssscccccccccccccccccccccccccccccccsscsssscccccccccccsscccssccccccscccccsscccccsscccssscccccccsscsscccccccccccccccsscssscsscccssccscccccccssscccsscccsscccssscccsssccccccccccccccccscccccccccccccccsscccsscccsssscccsscsscccsscccccccccsscssscsscccccccccssscccsscccsscssscccccssscsssscssccccccccsscccccsscccssscsscccccccccccccsscsscccccssscsscsscccsscccccccccccscccccscccccccssccccccccccccscccsscccccsscccccccccccccsssscccccccccccccccccsscccccccccccccsscccccsssscccsscccccccccccccsscccccccsssssscccsssscccccccccccccsscccccsscccsscccccccccccccccccccccccccccccccccccccccccccccccccccccsscccccccccccccccccccccccscsccccccccccccccssccscccccssscsscsscsscccsscccssccccccccsscsscccccccsccscccsscccssccccsccccccscsccscsccccccccsccccssccccsccsscccccss" />
  </g>
</svg>
